<svg xmlns="http://www.w3.org/2000/svg" xmlns:xlink="http://www.w3.org/1999/xlink" width="500" zoomAndPan="magnify" viewBox="0 0 375 374.999991" height="500" preserveAspectRatio="xMidYMid meet" version="1.0"><defs><filter x="0%" y="0%" width="100%" height="100%" id="94aa5c146f"><feColorMatrix values="0 0 0 0 1 0 0 0 0 1 0 0 0 0 1 0 0 0 1 0" color-interpolation-filters="sRGB"/></filter><g/><mask id="e187525cd6"><g filter="url(#94aa5c146f)"><rect x="-37.5" width="450" fill="#000000" y="-37.499999" height="449.999989" fill-opacity="0.97"/></g></mask><clipPath id="bb82b7c034"><path d="M 0.359375 48 L 124 48 L 124 110.878906 L 0.359375 110.878906 Z M 0.359375 48 " clip-rule="nonzero"/></clipPath><clipPath id="164e2e12b2"><rect x="0" width="125" y="0" height="111"/></clipPath></defs><rect x="-37.5" width="450" fill="#ffffff" y="-37.499999" height="449.999989" fill-opacity="1"/><rect x="-37.5" width="450" fill="#05abad" y="-37.499999" height="449.999989" fill-opacity="1"/><g fill="#042a2b" fill-opacity="1"><g transform="translate(37.566086, 156.787769)"><g><path d="M 9 -14.828125 L 26.859375 -14.828125 L 26.859375 0 L 30.734375 0 L 30.734375 -29.84375 L 26.859375 -29.84375 L 26.859375 -16.796875 L 9 -16.796875 L 9 -29.84375 L 5.109375 -29.84375 L 5.109375 0 L 9 0 Z M 9 -14.828125 "/></g></g></g><g fill="#042a2b" fill-opacity="1"><g transform="translate(73.407527, 156.787769)"><g><path d="M 3.40625 -29.84375 L 3.40625 -11.515625 C 3.40625 -10.347656 3.519531 -9.0625 3.75 -7.65625 C 3.976562 -6.25 4.519531 -4.941406 5.375 -3.734375 C 6.226562 -2.523438 7.488281 -1.515625 9.15625 -0.703125 C 10.832031 0.109375 13.125 0.515625 16.03125 0.515625 C 17.84375 0.515625 19.453125 0.234375 20.859375 -0.328125 C 22.265625 -0.898438 23.441406 -1.679688 24.390625 -2.671875 C 25.347656 -3.671875 26.066406 -4.832031 26.546875 -6.15625 C 27.035156 -7.476562 27.28125 -8.894531 27.28125 -10.40625 L 27.28125 -29.84375 L 25.40625 -29.84375 L 25.40625 -11.8125 C 25.40625 -11.1875 25.390625 -10.550781 25.359375 -9.90625 C 25.328125 -9.269531 25.238281 -8.628906 25.09375 -7.984375 C 24.957031 -7.347656 24.738281 -6.71875 24.4375 -6.09375 C 24.144531 -5.46875 23.710938 -4.84375 23.140625 -4.21875 C 22.117188 -3.113281 20.96875 -2.359375 19.6875 -1.953125 C 18.414062 -1.554688 17.082031 -1.359375 15.6875 -1.359375 C 14.488281 -1.359375 13.425781 -1.539062 12.5 -1.90625 C 11.582031 -2.28125 10.710938 -2.835938 9.890625 -3.578125 C 9.234375 -4.148438 8.734375 -4.71875 8.390625 -5.28125 C 8.054688 -5.851562 7.800781 -6.414062 7.625 -6.96875 C 7.457031 -7.519531 7.359375 -8.078125 7.328125 -8.640625 C 7.296875 -9.210938 7.28125 -9.785156 7.28125 -10.359375 L 7.28125 -29.84375 Z M 3.40625 -29.84375 "/></g></g></g><g fill="#042a2b" fill-opacity="1"><g transform="translate(104.092235, 156.787769)"><g><path d="M 29.15625 -29.84375 L 29.15625 -7.03125 L 28.984375 -7.03125 L 5.328125 -30.34375 L 5.109375 -30.34375 L 5.109375 0 L 7.078125 0 L 7.078125 -22.796875 L 7.25 -22.796875 L 30.90625 0.515625 L 31.109375 0.515625 L 31.109375 -29.84375 Z M 29.15625 -29.84375 "/></g></g></g><g fill="#042a2b" fill-opacity="1"><g transform="translate(140.317234, 156.787769)"><g><path d="M 32.265625 -13.296875 L 23.828125 -13.296875 L 23.828125 -11.546875 L 28.59375 -11.546875 L 28.59375 -3.84375 C 27.320312 -3.007812 26.015625 -2.394531 24.671875 -2 C 23.335938 -1.601562 21.820312 -1.40625 20.125 -1.40625 C 17.875 -1.40625 15.910156 -1.742188 14.234375 -2.421875 C 12.554688 -3.109375 11.160156 -4.054688 10.046875 -5.265625 C 8.941406 -6.472656 8.113281 -7.90625 7.5625 -9.5625 C 7.007812 -11.226562 6.734375 -13.054688 6.734375 -15.046875 C 6.734375 -17.003906 6.992188 -18.804688 7.515625 -20.453125 C 8.046875 -22.109375 8.835938 -23.53125 9.890625 -24.71875 C 10.941406 -25.914062 12.226562 -26.835938 13.75 -27.484375 C 15.269531 -28.140625 17.035156 -28.46875 19.046875 -28.46875 C 20.390625 -28.46875 21.640625 -28.328125 22.796875 -28.046875 C 23.960938 -27.765625 25 -27.394531 25.90625 -26.9375 C 26.820312 -26.476562 27.570312 -25.957031 28.15625 -25.375 C 28.738281 -24.800781 29.113281 -24.210938 29.28125 -23.609375 L 32.359375 -23.609375 C 32.097656 -24.234375 31.660156 -24.9375 31.046875 -25.71875 C 30.441406 -26.5 29.613281 -27.226562 28.5625 -27.90625 C 27.507812 -28.59375 26.207031 -29.171875 24.65625 -29.640625 C 23.101562 -30.109375 21.28125 -30.34375 19.1875 -30.34375 C 16.769531 -30.34375 14.546875 -30 12.515625 -29.3125 C 10.484375 -28.632812 8.726562 -27.65625 7.25 -26.375 C 5.769531 -25.101562 4.617188 -23.535156 3.796875 -21.671875 C 2.972656 -19.816406 2.5625 -17.707031 2.5625 -15.34375 C 2.5625 -13.320312 2.878906 -11.367188 3.515625 -9.484375 C 4.148438 -7.597656 5.128906 -5.90625 6.453125 -4.40625 C 7.773438 -2.914062 9.457031 -1.722656 11.5 -0.828125 C 13.550781 0.0664062 16 0.515625 18.84375 0.515625 C 20.96875 0.515625 22.851562 0.28125 24.5 -0.1875 C 26.15625 -0.65625 27.519531 -1.175781 28.59375 -1.75 L 28.59375 0 L 32.265625 0 Z M 32.265625 -13.296875 "/></g></g></g><g fill="#042a2b" fill-opacity="1"><g transform="translate(175.135849, 156.787769)"><g><path d="M 5.109375 -29.84375 L 5.109375 0 L 24.375 0 L 24.375 -2.34375 L 9 -2.34375 L 9 -14.828125 L 22.203125 -14.828125 L 22.203125 -16.796875 L 9 -16.796875 L 9 -27.5 L 24.375 -27.5 L 24.375 -29.84375 Z M 5.109375 -29.84375 "/></g></g></g><g fill="#042a2b" fill-opacity="1"><g transform="translate(200.79167, 156.787769)"><g><path d="M 5.109375 -29.84375 L 5.109375 0 L 9 0 L 9 -13.171875 L 10.875 -13.171875 C 11.664062 -13.171875 12.320312 -13.097656 12.84375 -12.953125 C 13.375 -12.816406 13.851562 -12.578125 14.28125 -12.234375 C 14.707031 -11.890625 15.101562 -11.445312 15.46875 -10.90625 C 15.84375 -10.375 16.285156 -9.707031 16.796875 -8.90625 L 20.15625 -3.921875 C 20.582031 -3.265625 21 -2.664062 21.40625 -2.125 C 21.820312 -1.59375 22.269531 -1.132812 22.75 -0.75 C 23.238281 -0.363281 23.785156 -0.0546875 24.390625 0.171875 C 25.003906 0.398438 25.738281 0.515625 26.59375 0.515625 C 27.21875 0.515625 27.726562 0.484375 28.125 0.421875 C 28.53125 0.367188 28.929688 0.226562 29.328125 0 L 29.328125 -1.578125 C 29.179688 -1.546875 29.035156 -1.519531 28.890625 -1.5 C 28.753906 -1.488281 28.613281 -1.484375 28.46875 -1.484375 C 27.875 -1.484375 27.347656 -1.566406 26.890625 -1.734375 C 26.441406 -1.910156 26.015625 -2.160156 25.609375 -2.484375 C 25.210938 -2.816406 24.828125 -3.21875 24.453125 -3.6875 C 24.085938 -4.15625 23.707031 -4.6875 23.3125 -5.28125 C 22.125 -7.019531 21.203125 -8.40625 20.546875 -9.4375 C 19.890625 -10.476562 19.367188 -11.28125 18.984375 -11.84375 C 18.597656 -12.414062 18.285156 -12.828125 18.046875 -13.078125 C 17.804688 -13.335938 17.515625 -13.550781 17.171875 -13.71875 L 16.75 -13.9375 L 16.75 -14.109375 C 18.113281 -14.191406 19.285156 -14.488281 20.265625 -15 C 21.242188 -15.507812 22.046875 -16.148438 22.671875 -16.921875 C 23.296875 -17.691406 23.75 -18.523438 24.03125 -19.421875 C 24.320312 -20.316406 24.46875 -21.1875 24.46875 -22.03125 C 24.46875 -22.800781 24.316406 -23.640625 24.015625 -24.546875 C 23.722656 -25.460938 23.210938 -26.3125 22.484375 -27.09375 C 21.753906 -27.875 20.765625 -28.523438 19.515625 -29.046875 C 18.265625 -29.578125 16.691406 -29.84375 14.796875 -29.84375 Z M 9 -27.96875 L 13.296875 -27.96875 C 14.378906 -27.96875 15.351562 -27.8125 16.21875 -27.5 C 17.082031 -27.1875 17.828125 -26.75 18.453125 -26.1875 C 19.078125 -25.632812 19.550781 -24.972656 19.875 -24.203125 C 20.207031 -23.441406 20.375 -22.609375 20.375 -21.703125 C 20.375 -20.929688 20.222656 -20.15625 19.921875 -19.375 C 19.628906 -18.59375 19.179688 -17.878906 18.578125 -17.234375 C 17.984375 -16.597656 17.253906 -16.082031 16.390625 -15.6875 C 15.523438 -15.289062 14.523438 -15.09375 13.390625 -15.09375 L 9 -15.09375 Z M 9 -27.96875 "/></g></g></g><g mask="url(#e187525cd6)"><g transform="matrix(1, 0, 0, 1, 213, 126)"><g clip-path="url(#164e2e12b2)"><g clip-path="url(#bb82b7c034)"><path fill="#042a2b" d="M 13.527344 82.617188 C 17.117188 86.765625 21.25 90.347656 25.683594 93.5625 C 27.933594 95.195312 30.289062 96.65625 32.582031 98.226562 C 36.277344 100.746094 35.0625 104.605469 35.9375 108.382812 C 36.144531 109.28125 37.058594 109.898438 37.949219 109.914062 C 44.347656 109.984375 50.753906 109.984375 57.152344 109.992188 C 62.398438 109.992188 67.648438 110.0625 72.886719 110.097656 C 76.171875 110.125 82.707031 111.363281 85.496094 109.191406 C 86.972656 108.042969 87.199219 106.421875 87.171875 104.667969 C 87.152344 103.074219 86.597656 101.546875 87.101562 99.945312 C 87.773438 97.824219 89.726562 96.816406 91.53125 95.890625 C 96.769531 93.207031 101.433594 90.539062 105.789062 86.53125 C 110.382812 82.308594 114.804688 77.34375 117.460938 71.660156 C 120.304688 65.59375 121.664062 58.992188 123.613281 52.621094 C 124.070312 51.132812 122.832031 49.597656 121.3125 49.597656 C 86.046875 49.675781 50.769531 49.011719 15.503906 48.777344 C 11.433594 48.753906 7.371094 48.777344 3.300781 48.867188 C 2.832031 48.875 2.464844 49.039062 2.203125 49.285156 C 1.359375 49.492188 0.679688 50.171875 0.773438 51.324219 C 1.757812 62.933594 5.847656 73.777344 13.507812 82.625 Z M 97.5 54.242188 C 104.386719 54.304688 111.265625 54.367188 118.148438 54.367188 C 116.695312 59.621094 115.449219 64.992188 113.078125 69.90625 C 110.375 75.511719 106.25 80.976562 101.859375 85.359375 C 97.613281 89.605469 92.253906 91.417969 87.625 94.957031 C 86.8125 95.578125 86.054688 96.28125 85.4375 97.085938 C 83.738281 96.675781 81.453125 97.109375 79.839844 97.15625 C 78.113281 97.207031 76.128906 97.109375 74.460938 97.632812 C 73.660156 97.886719 73.6875 98.976562 74.460938 99.238281 C 76.058594 99.769531 77.96875 99.707031 79.632812 99.804688 C 80.835938 99.867188 82.046875 99.910156 83.25 99.960938 C 83.519531 99.96875 83.832031 100.003906 84.15625 100.039062 C 83.988281 101.800781 84.652344 103.867188 84.050781 105.242188 C 82.664062 108.355469 72.320312 106.621094 69.625 106.570312 C 64.742188 106.464844 59.863281 106.367188 54.980469 106.21875 C 49.890625 106.070312 44.800781 105.921875 39.710938 105.808594 C 39.316406 103.179688 39.414062 100.972656 38.664062 98.960938 C 40.164062 99.089844 41.757812 99.019531 42.675781 99.089844 C 44.75 99.265625 47.980469 100.160156 50.011719 99.515625 C 51.191406 99.140625 51.695312 97.242188 50.386719 96.640625 C 48.425781 95.742188 45.339844 96.152344 43.222656 96.066406 C 41.828125 96.003906 38.367188 95.296875 36.492188 95.863281 C 36.144531 95.542969 35.761719 95.226562 35.308594 94.90625 C 30.496094 91.523438 25.582031 88.472656 21.273438 84.417969 C 12.097656 75.78125 6.613281 64.800781 5.332031 52.308594 C 35.988281 53.867188 66.835938 53.972656 97.519531 54.261719 Z M 97.5 54.242188 " fill-opacity="1" fill-rule="nonzero"/></g><path fill="#042a2b" d="M 90.292969 82.058594 C 94.03125 80.183594 96.90625 77.019531 99.210938 73.585938 C 100.863281 71.109375 104.683594 66.296875 103.820312 63.195312 C 103.742188 62.90625 103.394531 62.664062 103.085938 62.777344 C 100.445312 63.8125 99.242188 68.058594 97.753906 70.34375 C 95.339844 74.054688 92.472656 77.019531 88.742188 79.40625 C 87.066406 80.480469 88.523438 82.9375 90.292969 82.058594 Z M 90.292969 82.058594 " fill-opacity="1" fill-rule="nonzero"/><path fill="#042a2b" d="M 38.238281 35.753906 C 35.960938 36.808594 37.949219 40.042969 40.191406 39.085938 C 45.65625 36.757812 48.863281 30.605469 47.425781 24.789062 C 46.710938 21.878906 44.949219 19.734375 42.855469 17.679688 C 40.703125 15.550781 38.996094 13.574219 39.195312 10.347656 C 39.394531 7.105469 41.410156 3.785156 44.644531 2.867188 C 45.28125 2.683594 45.375 1.824219 44.828125 1.484375 C 38.742188 -2.265625 34.882812 8.882812 35.726562 13.265625 C 36.398438 16.710938 38.941406 18.601562 41.164062 21.050781 C 45.863281 26.210938 44.460938 32.871094 38.226562 35.753906 Z M 38.238281 35.753906 " fill-opacity="1" fill-rule="nonzero"/><path fill="#042a2b" d="M 59.914062 40.515625 C 64.507812 37.027344 67.882812 31.242188 66.75 25.3125 C 66.234375 22.65625 64.804688 20.605469 63.097656 18.574219 C 61.773438 16.996094 60.394531 15.621094 59.921875 13.554688 C 59.4375 11.394531 60.796875 4.523438 63.976562 4.28125 C 64.628906 4.226562 65.023438 3.460938 64.527344 2.957031 C 59.75 -1.882812 55.773438 10.589844 56.296875 13.84375 C 56.863281 17.355469 59.59375 19.507812 61.511719 22.28125 C 65.546875 28.121094 61.964844 33.386719 57.8125 37.777344 C 56.53125 39.136719 58.285156 41.734375 59.914062 40.496094 Z M 59.914062 40.515625 " fill-opacity="1" fill-rule="nonzero"/><path fill="#042a2b" d="M 80.476562 35.703125 C 78.699219 36.636719 79.929688 39.730469 81.863281 39 C 87.300781 36.949219 90.816406 31.050781 89.804688 25.242188 C 89.183594 21.660156 86.945312 18.828125 84.453125 16.292969 C 82.367188 14.171875 79.9375 12.074219 80.058594 8.804688 C 80.179688 5.621094 82.507812 3.6875 84.679688 1.742188 C 85.210938 1.273438 84.808594 0.246094 84.078125 0.296875 C 77.949219 0.742188 75.144531 7.96875 77.355469 13.222656 C 79.082031 17.3125 83.433594 19.464844 85.351562 23.464844 C 87.71875 28.433594 85.042969 33.289062 80.476562 35.695312 Z M 80.476562 35.703125 " fill-opacity="1" fill-rule="nonzero"/><path fill="#042a2b" d="M 83.160156 84.8125 C 83.160156 85.113281 83.105469 85.398438 82.988281 85.675781 C 82.875 85.953125 82.710938 86.195312 82.5 86.410156 C 82.289062 86.621094 82.042969 86.785156 81.769531 86.898438 C 81.492188 87.011719 81.203125 87.070312 80.90625 87.070312 C 80.605469 87.070312 80.316406 87.011719 80.039062 86.898438 C 79.765625 86.785156 79.519531 86.621094 79.308594 86.410156 C 79.097656 86.195312 78.933594 85.953125 78.820312 85.675781 C 78.703125 85.398438 78.648438 85.113281 78.648438 84.8125 C 78.648438 84.511719 78.703125 84.226562 78.820312 83.949219 C 78.933594 83.671875 79.097656 83.425781 79.308594 83.214844 C 79.519531 83.003906 79.765625 82.839844 80.039062 82.726562 C 80.316406 82.613281 80.605469 82.554688 80.90625 82.554688 C 81.203125 82.554688 81.492188 82.613281 81.769531 82.726562 C 82.042969 82.839844 82.289062 83.003906 82.5 83.214844 C 82.710938 83.425781 82.875 83.671875 82.988281 83.949219 C 83.105469 84.226562 83.160156 84.511719 83.160156 84.8125 Z M 83.160156 84.8125 " fill-opacity="1" fill-rule="nonzero"/></g></g></g><g fill="#042a2b" fill-opacity="1"><g transform="translate(38.227057, 233.49975)"><g><path d="M 4.796875 -61.125 L 4.796875 -56.3125 L 41.734375 -56.3125 L 2.625 0 L 55.53125 0 L 55.53125 -4.796875 L 15.28125 -4.796875 L 54.046875 -61.125 Z M 4.796875 -61.125 "/></g></g></g><g fill="#042a2b" fill-opacity="1"><g transform="translate(96.378156, 233.49975)"><g><path d="M 10.484375 -61.125 L 10.484375 0 L 49.9375 0 L 49.9375 -4.796875 L 18.421875 -4.796875 L 18.421875 -30.390625 L 45.484375 -30.390625 L 45.484375 -34.40625 L 18.421875 -34.40625 L 18.421875 -56.3125 L 49.9375 -56.3125 L 49.9375 -61.125 Z M 10.484375 -61.125 "/></g></g></g><g fill="#042a2b" fill-opacity="1"><g transform="translate(148.941161, 233.49975)"><g><path d="M 10.484375 -61.125 L 10.484375 0 L 18.421875 0 L 18.421875 -26.984375 L 22.265625 -26.984375 C 23.890625 -26.984375 25.238281 -26.835938 26.3125 -26.546875 C 27.394531 -26.253906 28.375 -25.757812 29.25 -25.0625 C 30.125 -24.363281 30.9375 -23.457031 31.6875 -22.34375 C 32.445312 -21.238281 33.351562 -19.875 34.40625 -18.25 L 41.296875 -8.03125 C 42.171875 -6.695312 43.03125 -5.472656 43.875 -4.359375 C 44.71875 -3.253906 45.632812 -2.304688 46.625 -1.515625 C 47.613281 -0.734375 48.734375 -0.113281 49.984375 0.34375 C 51.234375 0.8125 52.734375 1.046875 54.484375 1.046875 C 55.765625 1.046875 56.8125 0.988281 57.625 0.875 C 58.4375 0.757812 59.253906 0.46875 60.078125 0 L 60.078125 -3.234375 C 59.785156 -3.171875 59.492188 -3.125 59.203125 -3.09375 C 58.910156 -3.070312 58.617188 -3.0625 58.328125 -3.0625 C 57.097656 -3.0625 56.019531 -3.234375 55.09375 -3.578125 C 54.164062 -3.929688 53.289062 -4.441406 52.46875 -5.109375 C 51.65625 -5.773438 50.867188 -6.585938 50.109375 -7.546875 C 49.359375 -8.515625 48.578125 -9.609375 47.765625 -10.828125 C 45.316406 -14.378906 43.421875 -17.21875 42.078125 -19.34375 C 40.742188 -21.46875 39.679688 -23.109375 38.890625 -24.265625 C 38.109375 -25.429688 37.46875 -26.273438 36.96875 -26.796875 C 36.476562 -27.328125 35.882812 -27.765625 35.1875 -28.109375 L 34.3125 -28.546875 L 34.3125 -28.90625 C 37.101562 -29.070312 39.503906 -29.679688 41.515625 -30.734375 C 43.523438 -31.785156 45.171875 -33.09375 46.453125 -34.65625 C 47.734375 -36.226562 48.664062 -37.929688 49.25 -39.765625 C 49.832031 -41.597656 50.125 -43.390625 50.125 -45.140625 C 50.125 -46.710938 49.816406 -48.429688 49.203125 -50.296875 C 48.585938 -52.160156 47.535156 -53.890625 46.046875 -55.484375 C 44.566406 -57.085938 42.546875 -58.425781 39.984375 -59.5 C 37.421875 -60.582031 34.191406 -61.125 30.296875 -61.125 Z M 18.421875 -57.28125 L 27.234375 -57.28125 C 29.453125 -57.28125 31.445312 -56.957031 33.21875 -56.3125 C 35 -55.675781 36.53125 -54.789062 37.8125 -53.65625 C 39.09375 -52.519531 40.066406 -51.164062 40.734375 -49.59375 C 41.398438 -48.019531 41.734375 -46.300781 41.734375 -44.4375 C 41.734375 -42.863281 41.425781 -41.273438 40.8125 -39.671875 C 40.207031 -38.078125 39.289062 -36.625 38.0625 -35.3125 C 36.84375 -34.007812 35.34375 -32.945312 33.5625 -32.125 C 31.789062 -31.3125 29.742188 -30.90625 27.421875 -30.90625 L 18.421875 -30.90625 Z M 18.421875 -57.28125 "/></g></g></g></svg>